<mxfile host="app.diagrams.net" agent="Mozilla/5.0 (X11; Linux x86_64; rv:133.0) Gecko/20100101 Firefox/133.0" version="28.0.4">
  <diagram id="C5RBs43oDa-KdzZeNtuy" name="Page-1">
    <mxGraphModel dx="646" dy="327" grid="1" gridSize="10" guides="1" tooltips="1" connect="1" arrows="1" fold="1" page="1" pageScale="1" pageWidth="827" pageHeight="1169" math="0" shadow="0">
      <root>
        <mxCell id="WIyWlLk6GJQsqaUBKTNV-0" />
        <mxCell id="WIyWlLk6GJQsqaUBKTNV-1" parent="WIyWlLk6GJQsqaUBKTNV-0" />
        <mxCell id="B_APaOrJ2emBslFfA4eh-173" style="shape=connector;rounded=0;orthogonalLoop=1;jettySize=auto;html=1;shadow=0;strokeColor=default;strokeWidth=1;align=center;verticalAlign=middle;fontFamily=Helvetica;fontSize=11;fontColor=default;labelBackgroundColor=none;endArrow=block;endFill=0;endSize=8;" edge="1" parent="WIyWlLk6GJQsqaUBKTNV-1" source="B_APaOrJ2emBslFfA4eh-177" target="B_APaOrJ2emBslFfA4eh-179">
          <mxGeometry relative="1" as="geometry" />
        </mxCell>
        <mxCell id="B_APaOrJ2emBslFfA4eh-174" value="Yes" style="edgeLabel;html=1;align=center;verticalAlign=middle;resizable=0;points=[];fontFamily=Helvetica;fontSize=11;fontColor=default;labelBackgroundColor=none;" vertex="1" connectable="0" parent="B_APaOrJ2emBslFfA4eh-173">
          <mxGeometry x="-0.2667" relative="1" as="geometry">
            <mxPoint x="5" y="8" as="offset" />
          </mxGeometry>
        </mxCell>
        <mxCell id="B_APaOrJ2emBslFfA4eh-175" style="edgeStyle=orthogonalEdgeStyle;shape=connector;rounded=0;orthogonalLoop=1;jettySize=auto;html=1;shadow=0;strokeColor=default;strokeWidth=1;align=center;verticalAlign=middle;fontFamily=Helvetica;fontSize=12;fontColor=default;labelBackgroundColor=none;endArrow=block;endFill=0;endSize=8;spacingTop=-1;" edge="1" parent="WIyWlLk6GJQsqaUBKTNV-1" source="B_APaOrJ2emBslFfA4eh-177">
          <mxGeometry relative="1" as="geometry">
            <mxPoint x="206" y="630" as="targetPoint" />
            <Array as="points">
              <mxPoint x="100" y="827" />
              <mxPoint x="100" y="630" />
              <mxPoint x="145" y="630" />
            </Array>
          </mxGeometry>
        </mxCell>
        <mxCell id="B_APaOrJ2emBslFfA4eh-176" value="No" style="edgeLabel;html=1;align=center;verticalAlign=middle;resizable=0;points=[];fontFamily=Helvetica;fontSize=12;fontColor=default;labelBackgroundColor=none;" vertex="1" connectable="0" parent="B_APaOrJ2emBslFfA4eh-175">
          <mxGeometry x="-0.1471" y="-2" relative="1" as="geometry">
            <mxPoint x="28" y="105" as="offset" />
          </mxGeometry>
        </mxCell>
        <mxCell id="B_APaOrJ2emBslFfA4eh-177" value="&amp;nbsp;Check&lt;div&gt;Username,&lt;/div&gt;&lt;div&gt;Password&lt;br&gt;&lt;/div&gt;" style="rhombus;whiteSpace=wrap;html=1;shadow=0;fontFamily=Helvetica;fontSize=12;align=center;strokeWidth=1;spacing=6;spacingTop=-4;" vertex="1" parent="WIyWlLk6GJQsqaUBKTNV-1">
          <mxGeometry x="156" y="787" width="100" height="80" as="geometry" />
        </mxCell>
        <mxCell id="B_APaOrJ2emBslFfA4eh-178" style="edgeStyle=none;shape=connector;rounded=0;orthogonalLoop=1;jettySize=auto;html=1;shadow=0;strokeColor=default;strokeWidth=1;align=center;verticalAlign=middle;fontFamily=Helvetica;fontSize=11;fontColor=default;labelBackgroundColor=none;endArrow=block;endFill=0;endSize=8;" edge="1" parent="WIyWlLk6GJQsqaUBKTNV-1" source="B_APaOrJ2emBslFfA4eh-179" target="B_APaOrJ2emBslFfA4eh-204">
          <mxGeometry relative="1" as="geometry" />
        </mxCell>
        <mxCell id="B_APaOrJ2emBslFfA4eh-179" value="User Dashboard" style="rounded=1;whiteSpace=wrap;html=1;fontSize=12;glass=0;strokeWidth=1;shadow=0;" vertex="1" parent="WIyWlLk6GJQsqaUBKTNV-1">
          <mxGeometry x="336" y="807" width="120" height="40" as="geometry" />
        </mxCell>
        <mxCell id="B_APaOrJ2emBslFfA4eh-180" style="edgeStyle=none;shape=connector;rounded=0;orthogonalLoop=1;jettySize=auto;html=1;shadow=0;strokeColor=default;strokeWidth=1;align=center;verticalAlign=middle;fontFamily=Helvetica;fontSize=11;fontColor=default;labelBackgroundColor=none;endArrow=block;endFill=0;endSize=8;" edge="1" parent="WIyWlLk6GJQsqaUBKTNV-1" source="B_APaOrJ2emBslFfA4eh-181" target="B_APaOrJ2emBslFfA4eh-194">
          <mxGeometry relative="1" as="geometry" />
        </mxCell>
        <mxCell id="B_APaOrJ2emBslFfA4eh-181" value="Start" style="ellipse;whiteSpace=wrap;html=1;" vertex="1" parent="WIyWlLk6GJQsqaUBKTNV-1">
          <mxGeometry x="146" y="470" width="120" height="50" as="geometry" />
        </mxCell>
        <mxCell id="B_APaOrJ2emBslFfA4eh-182" value="End" style="ellipse;whiteSpace=wrap;html=1;" vertex="1" parent="WIyWlLk6GJQsqaUBKTNV-1">
          <mxGeometry x="336" y="1562" width="120" height="50" as="geometry" />
        </mxCell>
        <mxCell id="B_APaOrJ2emBslFfA4eh-183" style="edgeStyle=none;shape=connector;rounded=0;orthogonalLoop=1;jettySize=auto;html=1;shadow=0;strokeColor=default;strokeWidth=1;align=center;verticalAlign=middle;fontFamily=Helvetica;fontSize=11;fontColor=default;labelBackgroundColor=none;endArrow=block;endFill=0;endSize=8;" edge="1" parent="WIyWlLk6GJQsqaUBKTNV-1" source="B_APaOrJ2emBslFfA4eh-184" target="B_APaOrJ2emBslFfA4eh-191">
          <mxGeometry relative="1" as="geometry" />
        </mxCell>
        <mxCell id="B_APaOrJ2emBslFfA4eh-184" value="Submit Payment" style="rounded=1;whiteSpace=wrap;html=1;fontSize=12;glass=0;strokeWidth=1;shadow=0;fontStyle=0;absoluteArcSize=0;" vertex="1" parent="WIyWlLk6GJQsqaUBKTNV-1">
          <mxGeometry x="336" y="1007" width="120" height="40" as="geometry" />
        </mxCell>
        <mxCell id="B_APaOrJ2emBslFfA4eh-185" style="edgeStyle=none;shape=connector;rounded=0;orthogonalLoop=1;jettySize=auto;html=1;shadow=0;strokeColor=default;strokeWidth=1;align=center;verticalAlign=middle;fontFamily=Helvetica;fontSize=11;fontColor=default;labelBackgroundColor=none;endArrow=block;endFill=0;endSize=8;" edge="1" parent="WIyWlLk6GJQsqaUBKTNV-1" source="B_APaOrJ2emBslFfA4eh-186" target="B_APaOrJ2emBslFfA4eh-182">
          <mxGeometry relative="1" as="geometry" />
        </mxCell>
        <mxCell id="B_APaOrJ2emBslFfA4eh-186" value="Logout" style="rounded=1;whiteSpace=wrap;html=1;fontSize=12;glass=0;strokeWidth=1;shadow=0;" vertex="1" parent="WIyWlLk6GJQsqaUBKTNV-1">
          <mxGeometry x="336" y="1477" width="120" height="40" as="geometry" />
        </mxCell>
        <mxCell id="B_APaOrJ2emBslFfA4eh-187" style="edgeStyle=none;shape=connector;rounded=0;orthogonalLoop=1;jettySize=auto;html=1;shadow=0;strokeColor=default;strokeWidth=1;align=center;verticalAlign=middle;fontFamily=Helvetica;fontSize=11;fontColor=default;labelBackgroundColor=none;endArrow=block;endFill=0;endSize=8;" edge="1" parent="WIyWlLk6GJQsqaUBKTNV-1" source="B_APaOrJ2emBslFfA4eh-191" target="B_APaOrJ2emBslFfA4eh-192">
          <mxGeometry relative="1" as="geometry" />
        </mxCell>
        <mxCell id="B_APaOrJ2emBslFfA4eh-188" value="No" style="edgeLabel;html=1;align=center;verticalAlign=middle;resizable=0;points=[];fontFamily=Helvetica;fontSize=11;fontColor=default;labelBackgroundColor=none;" vertex="1" connectable="0" parent="B_APaOrJ2emBslFfA4eh-187">
          <mxGeometry x="-0.0852" y="-2" relative="1" as="geometry">
            <mxPoint y="8" as="offset" />
          </mxGeometry>
        </mxCell>
        <mxCell id="B_APaOrJ2emBslFfA4eh-189" style="edgeStyle=none;shape=connector;rounded=0;orthogonalLoop=1;jettySize=auto;html=1;shadow=0;strokeColor=default;strokeWidth=1;align=center;verticalAlign=middle;fontFamily=Helvetica;fontSize=11;fontColor=default;labelBackgroundColor=none;endArrow=block;endFill=0;endSize=8;" edge="1" parent="WIyWlLk6GJQsqaUBKTNV-1" source="B_APaOrJ2emBslFfA4eh-191" target="B_APaOrJ2emBslFfA4eh-199">
          <mxGeometry relative="1" as="geometry" />
        </mxCell>
        <mxCell id="B_APaOrJ2emBslFfA4eh-190" value="Yes" style="edgeLabel;html=1;align=center;verticalAlign=middle;resizable=0;points=[];fontFamily=Helvetica;fontSize=11;fontColor=default;labelBackgroundColor=none;" vertex="1" connectable="0" parent="B_APaOrJ2emBslFfA4eh-189">
          <mxGeometry x="-0.0444" y="2" relative="1" as="geometry">
            <mxPoint x="8" as="offset" />
          </mxGeometry>
        </mxCell>
        <mxCell id="B_APaOrJ2emBslFfA4eh-191" value="Valid Payment" style="rhombus;whiteSpace=wrap;html=1;shadow=0;fontFamily=Helvetica;fontSize=12;align=center;strokeWidth=1;spacing=6;spacingTop=-4;" vertex="1" parent="WIyWlLk6GJQsqaUBKTNV-1">
          <mxGeometry x="346" y="1097" width="100" height="80" as="geometry" />
        </mxCell>
        <mxCell id="B_APaOrJ2emBslFfA4eh-192" value="Retry Submit Payment" style="rounded=1;whiteSpace=wrap;html=1;fontSize=12;glass=0;strokeWidth=1;shadow=0;" vertex="1" parent="WIyWlLk6GJQsqaUBKTNV-1">
          <mxGeometry x="496" y="1117" width="120" height="40" as="geometry" />
        </mxCell>
        <mxCell id="B_APaOrJ2emBslFfA4eh-193" style="edgeStyle=none;shape=connector;rounded=0;orthogonalLoop=1;jettySize=auto;html=1;shadow=0;strokeColor=default;strokeWidth=1;align=center;verticalAlign=middle;fontFamily=Helvetica;fontSize=12;fontColor=default;labelBackgroundColor=none;endArrow=block;endFill=0;endSize=8;" edge="1" parent="WIyWlLk6GJQsqaUBKTNV-1" source="B_APaOrJ2emBslFfA4eh-194" target="B_APaOrJ2emBslFfA4eh-206">
          <mxGeometry relative="1" as="geometry" />
        </mxCell>
        <mxCell id="B_APaOrJ2emBslFfA4eh-194" value="Home Page" style="rounded=1;whiteSpace=wrap;html=1;fontSize=12;glass=0;strokeWidth=1;shadow=0;" vertex="1" parent="WIyWlLk6GJQsqaUBKTNV-1">
          <mxGeometry x="146" y="570" width="120" height="40" as="geometry" />
        </mxCell>
        <mxCell id="B_APaOrJ2emBslFfA4eh-195" style="edgeStyle=none;shape=connector;rounded=0;orthogonalLoop=1;jettySize=auto;html=1;shadow=0;strokeColor=default;strokeWidth=1;align=center;verticalAlign=middle;fontFamily=Helvetica;fontSize=11;fontColor=default;labelBackgroundColor=none;endArrow=block;endFill=0;endSize=8;" edge="1" parent="WIyWlLk6GJQsqaUBKTNV-1" source="B_APaOrJ2emBslFfA4eh-199" target="B_APaOrJ2emBslFfA4eh-200">
          <mxGeometry relative="1" as="geometry" />
        </mxCell>
        <mxCell id="B_APaOrJ2emBslFfA4eh-196" value="No" style="edgeLabel;html=1;align=center;verticalAlign=middle;resizable=0;points=[];fontFamily=Helvetica;fontSize=11;fontColor=default;labelBackgroundColor=none;" vertex="1" connectable="0" parent="B_APaOrJ2emBslFfA4eh-195">
          <mxGeometry x="0.1424" y="-1" relative="1" as="geometry">
            <mxPoint x="-5" y="-16" as="offset" />
          </mxGeometry>
        </mxCell>
        <mxCell id="B_APaOrJ2emBslFfA4eh-197" style="edgeStyle=none;shape=connector;rounded=0;orthogonalLoop=1;jettySize=auto;html=1;shadow=0;strokeColor=default;strokeWidth=1;align=center;verticalAlign=middle;fontFamily=Helvetica;fontSize=11;fontColor=default;labelBackgroundColor=none;endArrow=block;endFill=0;endSize=8;" edge="1" parent="WIyWlLk6GJQsqaUBKTNV-1" source="B_APaOrJ2emBslFfA4eh-199" target="B_APaOrJ2emBslFfA4eh-202">
          <mxGeometry relative="1" as="geometry" />
        </mxCell>
        <mxCell id="B_APaOrJ2emBslFfA4eh-198" value="Yes" style="edgeLabel;html=1;align=center;verticalAlign=middle;resizable=0;points=[];fontFamily=Helvetica;fontSize=11;fontColor=default;labelBackgroundColor=none;" vertex="1" connectable="0" parent="B_APaOrJ2emBslFfA4eh-197">
          <mxGeometry x="0.0154" y="2" relative="1" as="geometry">
            <mxPoint x="8" as="offset" />
          </mxGeometry>
        </mxCell>
        <mxCell id="B_APaOrJ2emBslFfA4eh-199" value="Payment Accepted By Admin" style="rhombus;whiteSpace=wrap;html=1;shadow=0;fontFamily=Helvetica;fontSize=12;align=center;strokeWidth=1;spacing=6;spacingTop=-4;" vertex="1" parent="WIyWlLk6GJQsqaUBKTNV-1">
          <mxGeometry x="346" y="1232" width="100" height="80" as="geometry" />
        </mxCell>
        <mxCell id="B_APaOrJ2emBslFfA4eh-200" value="Get Warning Message" style="rounded=1;whiteSpace=wrap;html=1;fontSize=12;glass=0;strokeWidth=1;shadow=0;" vertex="1" parent="WIyWlLk6GJQsqaUBKTNV-1">
          <mxGeometry x="506" y="1252" width="120" height="40" as="geometry" />
        </mxCell>
        <mxCell id="B_APaOrJ2emBslFfA4eh-201" style="edgeStyle=none;shape=connector;rounded=0;orthogonalLoop=1;jettySize=auto;html=1;shadow=0;strokeColor=default;strokeWidth=1;align=center;verticalAlign=middle;fontFamily=Helvetica;fontSize=11;fontColor=default;labelBackgroundColor=none;endArrow=block;endFill=0;endSize=8;" edge="1" parent="WIyWlLk6GJQsqaUBKTNV-1" source="B_APaOrJ2emBslFfA4eh-202" target="B_APaOrJ2emBslFfA4eh-186">
          <mxGeometry relative="1" as="geometry" />
        </mxCell>
        <mxCell id="B_APaOrJ2emBslFfA4eh-202" value="Get Receipt Message" style="rounded=1;whiteSpace=wrap;html=1;fontSize=12;glass=0;strokeWidth=1;shadow=0;" vertex="1" parent="WIyWlLk6GJQsqaUBKTNV-1">
          <mxGeometry x="336" y="1377" width="120" height="40" as="geometry" />
        </mxCell>
        <mxCell id="B_APaOrJ2emBslFfA4eh-203" style="edgeStyle=none;shape=connector;rounded=0;orthogonalLoop=1;jettySize=auto;html=1;shadow=0;strokeColor=default;strokeWidth=1;align=center;verticalAlign=middle;fontFamily=Helvetica;fontSize=11;fontColor=default;labelBackgroundColor=none;endArrow=block;endFill=0;endSize=8;" edge="1" parent="WIyWlLk6GJQsqaUBKTNV-1" source="B_APaOrJ2emBslFfA4eh-204" target="B_APaOrJ2emBslFfA4eh-184">
          <mxGeometry relative="1" as="geometry" />
        </mxCell>
        <mxCell id="B_APaOrJ2emBslFfA4eh-204" value="Navigate to Submit Payment Page" style="rounded=1;whiteSpace=wrap;html=1;fontSize=12;glass=0;strokeWidth=1;shadow=0;" vertex="1" parent="WIyWlLk6GJQsqaUBKTNV-1">
          <mxGeometry x="336" y="907" width="120" height="40" as="geometry" />
        </mxCell>
        <mxCell id="B_APaOrJ2emBslFfA4eh-205" style="edgeStyle=orthogonalEdgeStyle;shape=connector;rounded=0;orthogonalLoop=1;jettySize=auto;html=1;shadow=0;strokeColor=default;strokeWidth=1;align=center;verticalAlign=middle;fontFamily=Helvetica;fontSize=12;fontColor=default;labelBackgroundColor=none;endArrow=block;endFill=0;endSize=8;" edge="1" parent="WIyWlLk6GJQsqaUBKTNV-1" source="B_APaOrJ2emBslFfA4eh-206" target="B_APaOrJ2emBslFfA4eh-177">
          <mxGeometry relative="1" as="geometry" />
        </mxCell>
        <mxCell id="B_APaOrJ2emBslFfA4eh-206" value="Login" style="rounded=1;whiteSpace=wrap;html=1;fontSize=12;glass=0;strokeWidth=1;shadow=0;" vertex="1" parent="WIyWlLk6GJQsqaUBKTNV-1">
          <mxGeometry x="146" y="668" width="120" height="40" as="geometry" />
        </mxCell>
      </root>
    </mxGraphModel>
  </diagram>
</mxfile>
